<svg width="225" height="116" viewBox="0 0 225 116" fill="none" xmlns="http://www.w3.org/2000/svg">
<g opacity="0.5">
<path d="M221.828 115.046H3.17249C1.41 115.046 0 113.636 0 111.874C0 110.111 1.41 108.701 3.17249 108.701H221.828C223.59 108.701 225 110.111 225 111.874C225 113.636 223.59 115.046 221.828 115.046Z" fill="#C9C9C9"/>
<path d="M44.3092 82.2648C40.9252 82.2648 38.2109 79.5153 38.2109 76.1666C38.2109 72.8178 40.9604 70.0684 44.3092 70.0684H78.854V82.3001H44.3092V82.2648Z" fill="#CECECE"/>
<path d="M80.8631 84.3796H44.3089C39.7617 84.3796 36.0957 80.6783 36.0957 76.1663C36.0957 71.6191 39.7969 67.9531 44.3089 67.9531H80.8631V84.3796Z" fill="white"/>
<path d="M42.0527 74.2637H78.8536" stroke="#1F3969" stroke-width="4" stroke-miterlimit="10" stroke-linecap="round" stroke-linejoin="round"/>
<path d="M42.0527 77.998H78.8536" stroke="#1F3969" stroke-width="4" stroke-miterlimit="10" stroke-linecap="round" stroke-linejoin="round"/>
<path d="M44.3092 82.2648C40.9252 82.2648 38.2109 79.5153 38.2109 76.1666C38.2109 72.8178 40.9604 70.0684 44.3092 70.0684H78.854V82.3001H44.3092V82.2648Z" stroke="#1F3969" stroke-width="4" stroke-miterlimit="10" stroke-linecap="round" stroke-linejoin="round"/>
<path d="M44.3089 82.2646C40.9249 82.2646 38.2107 79.5151 38.2107 76.1663C38.2107 72.8176 40.9602 70.0681 44.3089 70.0681H79.4531L80.8631 67.9531H44.3089C39.7617 67.9531 36.0957 71.6544 36.0957 76.1663C36.0957 80.7136 39.7969 84.3796 44.3089 84.3796H80.8631L79.4531 82.2646H44.3089Z" fill="#FF3E3E"/>
<path d="M44.3089 82.2646C40.9249 82.2646 38.2107 79.5151 38.2107 76.1663C38.2107 72.8176 40.9602 70.0681 44.3089 70.0681H79.4531L80.8631 67.9531H44.3089C39.7617 67.9531 36.0957 71.6544 36.0957 76.1663C36.0957 80.7136 39.7969 84.3796 44.3089 84.3796H80.8631L79.4531 82.2646H44.3089Z" stroke="#1F3969" stroke-width="4" stroke-miterlimit="10" stroke-linecap="round" stroke-linejoin="round"/>
<path opacity="0.28" d="M73.0036 67.918H66.5176V84.3797H73.0036V67.918Z" fill="#1F3969" stroke="#1F3969" stroke-width="4" stroke-miterlimit="10" stroke-linecap="round" stroke-linejoin="round"/>
<path d="M77.0904 97.9502H10.1509C8.84665 97.9502 7.75391 96.8927 7.75391 95.5532V86.7407C7.75391 85.4365 8.8114 84.3438 10.1509 84.3438H77.0904C78.3947 84.3438 79.4874 85.4012 79.4874 86.7407V95.5532C79.4874 96.8927 78.4299 97.9502 77.0904 97.9502Z" fill="#50B56F" fill-opacity="0.2"/>
<path d="M77.0904 97.9502H10.1509C8.84665 97.9502 7.75391 96.8927 7.75391 95.5532V86.7407C7.75391 85.4365 8.8114 84.3438 10.1509 84.3438H77.0904C78.3947 84.3438 79.4874 85.4012 79.4874 86.7407V95.5532C79.4874 96.8927 78.4299 97.9502 77.0904 97.9502Z" fill="#50B56F" fill-opacity="0.2" stroke="#1F3969" stroke-width="4" stroke-miterlimit="10" stroke-linecap="round" stroke-linejoin="round"/>
<path opacity="0.28" d="M77.0906 84.3789H66.5156V89.6664C66.5156 92.9799 69.1946 95.6941 72.5434 95.6941H79.4876C79.4876 95.6589 79.4876 95.6236 79.4876 95.5884V86.7759C79.4876 85.4364 78.4301 84.3789 77.0906 84.3789Z" fill="#1F3969" stroke="#1F3969" stroke-width="4" stroke-miterlimit="10" stroke-linecap="round" stroke-linejoin="round"/>
<path d="M95.9501 100.699H18.4004C18.8586 101.827 19.1054 103.237 19.1054 104.718C19.1054 106.198 18.8586 107.573 18.4004 108.736H95.9149C95.4566 107.608 95.2099 106.198 95.2099 104.718C95.2451 103.202 95.4919 101.827 95.9501 100.699Z" fill="#CECECE"/>
<path d="M98.0648 98.5488H16.3203V100.664H98.0648V98.5488Z" fill="#5F5AFF"/>
<path d="M98.0648 98.5488H16.3203V100.664H98.0648V98.5488Z" stroke="#1F3969" stroke-width="4" stroke-miterlimit="10" stroke-linecap="round" stroke-linejoin="round"/>
<path d="M98.0648 108.701H16.3203V110.816H98.0648V108.701Z" fill="#F6F9FD"/>
<path d="M98.0648 108.701H16.3203V110.816H98.0648V108.701Z" fill="#5F5AFF"/>
<path d="M98.0648 108.701H16.3203V110.816H98.0648V108.701Z" stroke="#1F3969" stroke-width="4" stroke-miterlimit="10" stroke-linecap="round" stroke-linejoin="round"/>
<path d="M138.673 103.307L137.616 91.4277H120.202L119.145 103.307C118.898 106.056 117.241 108.7 114.633 110.815V110.85H143.185V110.815C140.577 108.7 138.92 106.056 138.673 103.307Z" fill="#BFCFE2"/>
<path opacity="0.28" d="M120.201 91.4277L119.566 98.5482H138.249L137.614 91.4277H120.201Z" fill="#1F3969" stroke="#1F3969" stroke-width="4" stroke-miterlimit="10" stroke-linecap="round" stroke-linejoin="round"/>
<path d="M138.673 103.307L137.616 91.4277H120.202L119.145 103.307C118.898 106.056 117.241 108.7 114.633 110.815V110.85H143.185V110.815C140.577 108.7 138.92 106.056 138.673 103.307Z" stroke="#1F3969" stroke-width="4" stroke-miterlimit="10" stroke-linecap="round" stroke-linejoin="round"/>
<path d="M184.602 93.1919H73.2124C70.8859 93.1919 68.9824 91.2884 68.9824 88.9619V16.3472C68.9824 14.0207 70.8859 12.1172 73.2124 12.1172H184.602C186.929 12.1172 188.832 14.0207 188.832 16.3472V88.9619C188.832 91.3237 186.929 93.1919 184.602 93.1919Z" fill="white"/>
<path d="M184.602 93.1919H73.2124C70.8859 93.1919 68.9824 91.2884 68.9824 88.9619V16.3472C68.9824 14.0207 70.8859 12.1172 73.2124 12.1172H184.602C186.929 12.1172 188.832 14.0207 188.832 16.3472V88.9619C188.832 91.3237 186.929 93.1919 184.602 93.1919Z" fill="#BFCFE2"/>
<path d="M184.602 93.1919H73.2124C70.8859 93.1919 68.9824 91.2884 68.9824 88.9619V16.3472C68.9824 14.0207 70.8859 12.1172 73.2124 12.1172H184.602C186.929 12.1172 188.832 14.0207 188.832 16.3472V88.9619C188.832 91.3237 186.929 93.1919 184.602 93.1919Z" stroke="#1F3969" stroke-width="4" stroke-miterlimit="10" stroke-linecap="round" stroke-linejoin="round"/>
<path d="M182.861 79.6654V18.1191L74.9967 18.1191L74.9967 79.6654L182.861 79.6654Z" fill="#F6F9FD"/>
<path opacity="0.28" d="M78.8535 12.1172V60.9735C78.8535 62.5245 80.1225 63.7935 81.6735 63.7935H148.331C149.882 63.7935 151.151 62.5245 151.151 60.9735V12.1172H78.8535Z" fill="#1F3969" stroke="#1F3969" stroke-width="4" stroke-miterlimit="10" stroke-linecap="round" stroke-linejoin="round"/>
<path d="M182.861 79.6654V18.1191L74.9967 18.1191L74.9967 79.6654L182.861 79.6654Z" stroke="#1F3969" stroke-width="4" stroke-miterlimit="10" stroke-linecap="round" stroke-linejoin="round"/>
<path d="M124.186 86.3887H133.668" stroke="#1F3969" stroke-width="4" stroke-miterlimit="10" stroke-linecap="round" stroke-linejoin="round"/>
<path d="M151.503 59.9155H84.8454C83.2944 59.9155 82.0254 58.6465 82.0254 57.0955V4.85515C82.0254 3.30415 83.2944 2.03516 84.8454 2.03516H151.503C153.054 2.03516 154.323 3.30415 154.323 4.85515V57.1307C154.323 58.6817 153.054 59.9155 151.503 59.9155Z" fill="#EFBA2A"/>
<path d="M154.323 8.87373H82.0254V4.81999C82.0254 3.269 83.2944 2 84.8454 2H151.503C153.054 2 154.323 3.269 154.323 4.81999V8.87373Z" stroke="#1F3969" stroke-width="4" stroke-miterlimit="10" stroke-linecap="round" stroke-linejoin="round"/>
<path d="M154.323 10.2132H82.0254V4.81999C82.0254 3.269 83.2944 2 84.8454 2H151.503C153.054 2 154.323 3.269 154.323 4.81999V10.2132Z" fill="#D0DDF0"/>
<path d="M154.323 10.2132H82.0254V4.81999C82.0254 3.269 83.2944 2 84.8454 2H151.503C153.054 2 154.323 3.269 154.323 4.81999V10.2132Z" stroke="#1F3969" stroke-width="4" stroke-miterlimit="10" stroke-linecap="round" stroke-linejoin="round"/>
<path d="M154.323 10.2132H82.0254V4.81999C82.0254 3.269 83.2944 2 84.8454 2H151.503C153.054 2 154.323 3.269 154.323 4.81999V10.2132Z" stroke="#1F3969" stroke-width="4" stroke-miterlimit="10" stroke-linecap="round" stroke-linejoin="round"/>
<path d="M151.503 59.9155H84.8454C83.2944 59.9155 82.0254 58.6465 82.0254 57.0955V4.85515C82.0254 3.30415 83.2944 2.03516 84.8454 2.03516H151.503C153.054 2.03516 154.323 3.30415 154.323 4.85515V57.1307C154.323 58.6817 153.054 59.9155 151.503 59.9155Z" stroke="#1F3969" stroke-width="4" stroke-miterlimit="10" stroke-linecap="round" stroke-linejoin="round"/>
<path opacity="0.28" d="M186.296 72.3937H145.406C143.855 72.3937 142.586 71.1247 142.586 69.5737V26.2516C142.586 24.7006 143.855 23.4316 145.406 23.4316H186.296C187.847 23.4316 189.116 24.7006 189.116 26.2516V69.5737C189.116 71.16 187.847 72.3937 186.296 72.3937Z" fill="#1F3969" stroke="#1F3969" stroke-width="4" stroke-miterlimit="10" stroke-linecap="round" stroke-linejoin="round"/>
<path d="M189.116 69.9269H148.226C146.675 69.9269 145.406 68.6579 145.406 67.1069V23.7848C145.406 22.2338 146.675 20.9648 148.226 20.9648H189.116C190.667 20.9648 191.936 22.2338 191.936 23.7848V67.1069C191.936 68.6932 190.667 69.9269 189.116 69.9269Z" fill="#2AA1FF"/>
<path d="M189.116 69.9269H148.226C146.675 69.9269 145.406 68.6579 145.406 67.1069V23.7848C145.406 22.2338 146.675 20.9648 148.226 20.9648H189.116C190.667 20.9648 191.936 22.2338 191.936 23.7848V67.1069C191.936 68.6932 190.667 69.9269 189.116 69.9269Z" stroke="#1F3969" stroke-width="4" stroke-miterlimit="10" stroke-linecap="round" stroke-linejoin="round"/>
<path opacity="0.34" d="M183.019 34.394H154.255C153.233 34.394 152.422 33.5832 152.422 32.561V29.8115C152.422 28.7893 153.233 27.9785 154.255 27.9785H183.019C184.041 27.9785 184.852 28.7893 184.852 29.8115V32.561C184.852 33.5832 184.041 34.394 183.019 34.394Z" stroke="white" stroke-width="2" stroke-miterlimit="10" stroke-linecap="round" stroke-linejoin="round"/>
<g opacity="0.34">
<path opacity="0.34" d="M170.397 44.7241H154.323C153.301 44.7241 152.49 43.9133 152.49 42.8911V40.1416C152.49 39.1193 153.301 38.3086 154.323 38.3086H170.397C171.419 38.3086 172.23 39.1193 172.23 40.1416V42.8911C172.195 43.9133 171.384 44.7241 170.397 44.7241Z" stroke="white" stroke-width="2" stroke-miterlimit="10" stroke-linecap="round" stroke-linejoin="round"/>
<path opacity="0.34" d="M183.053 44.7241H176.813C175.791 44.7241 174.98 43.9133 174.98 42.8911V40.1416C174.98 39.1193 175.791 38.3086 176.813 38.3086H183.053C184.075 38.3086 184.886 39.1193 184.886 40.1416V42.8911C184.886 43.9133 184.075 44.7241 183.053 44.7241Z" stroke="white" stroke-width="2" stroke-miterlimit="10" stroke-linecap="round" stroke-linejoin="round"/>
</g>
<path d="M152.457 55.4395H184.852" stroke="white" stroke-width="2" stroke-miterlimit="10" stroke-linecap="round" stroke-linejoin="round"/>
<path d="M152.457 59.2461H184.852" stroke="white" stroke-width="2" stroke-miterlimit="10" stroke-linecap="round" stroke-linejoin="round"/>
<path d="M152.457 63.0527H172.197" stroke="white" stroke-width="2" stroke-miterlimit="10" stroke-linecap="round" stroke-linejoin="round"/>
<path d="M89.1112 7.53483C89.8899 7.53483 90.5212 6.90356 90.5212 6.12484C90.5212 5.34612 89.8899 4.71484 89.1112 4.71484C88.3324 4.71484 87.7012 5.34612 87.7012 6.12484C87.7012 6.90356 88.3324 7.53483 89.1112 7.53483Z" fill="#1F3969"/>
<path d="M94.0116 7.53483C94.7903 7.53483 95.4216 6.90356 95.4216 6.12484C95.4216 5.34612 94.7903 4.71484 94.0116 4.71484C93.2328 4.71484 92.6016 5.34612 92.6016 6.12484C92.6016 6.90356 93.2328 7.53483 94.0116 7.53483Z" fill="#1F3969"/>
<path d="M98.91 7.53483C99.6887 7.53483 100.32 6.90356 100.32 6.12484C100.32 5.34612 99.6887 4.71484 98.91 4.71484C98.1313 4.71484 97.5 5.34612 97.5 6.12484C97.5 6.90356 98.1313 7.53483 98.91 7.53483Z" fill="#1F3969"/>
<path d="M19.2812 103.133H95.2448" stroke="#1F3969" stroke-width="4" stroke-miterlimit="10" stroke-linecap="round" stroke-linejoin="round"/>
<path d="M19.2812 105.951H95.2448" stroke="#1F3969" stroke-width="4" stroke-miterlimit="10" stroke-linecap="round" stroke-linejoin="round"/>
<path d="M95.9501 100.699H18.4004C18.8586 101.827 19.1054 103.237 19.1054 104.718C19.1054 106.198 18.8586 107.573 18.4004 108.736H95.9149C95.4566 107.608 95.2099 106.198 95.2099 104.718C95.2451 103.202 95.4919 101.827 95.9501 100.699Z" stroke="#1F3969" stroke-width="4" stroke-miterlimit="10" stroke-linecap="round" stroke-linejoin="round"/>
<path d="M200.271 71.9585L196.84 72.3613L199.824 97.7787L203.255 97.3759L200.271 71.9585Z" fill="#FFA364"/>
<path d="M200.277 71.9859L196.846 72.3887L197.15 74.9794L200.581 74.5766L200.277 71.9859Z" fill="#2AA1FF"/>
<path d="M200.277 71.9859L196.846 72.3887L197.15 74.9794L200.581 74.5766L200.277 71.9859Z" stroke="#1F3969" stroke-width="4" stroke-miterlimit="10" stroke-linecap="round" stroke-linejoin="round"/>
<path d="M200.271 71.9585L196.84 72.3613L199.824 97.7787L203.255 97.3759L200.271 71.9585Z" stroke="#1F3969" stroke-width="4" stroke-miterlimit="10" stroke-linecap="round" stroke-linejoin="round"/>
<path d="M209.678 77.1664L206.244 76.793L203.478 102.233L206.912 102.607L209.678 77.1664Z" fill="#FF5252"/>
<path d="M209.678 77.1664L206.244 76.793L203.478 102.233L206.912 102.607L209.678 77.1664Z" stroke="#1F3969" stroke-width="4" stroke-miterlimit="10" stroke-linecap="round" stroke-linejoin="round"/>
<path d="M209.704 77.1723L206.27 76.7988L205.988 79.3919L209.422 79.7654L209.704 77.1723Z" fill="#2D425E"/>
<path d="M209.704 77.1723L206.27 76.7988L205.988 79.3919L209.422 79.7654L209.704 77.1723Z" stroke="#1F3969" stroke-width="4" stroke-miterlimit="10" stroke-linecap="round" stroke-linejoin="round"/>
<path d="M211.814 110.92H197.961L195.705 89.6992H214.07L211.814 110.92Z" fill="#6567C3"/>
<path d="M195.705 89.6992L195.74 90.087H209.735L207.514 110.92H211.814L214.07 89.6992H195.705Z" fill="#6567C3"/>
<path d="M211.814 110.92H197.961L195.705 89.6992H214.07L211.814 110.92Z" stroke="#1F3969" stroke-width="4" stroke-miterlimit="10" stroke-linecap="round" stroke-linejoin="round"/>
</g>
<path d="M116.5 28.5603V35.6697M116.5 42.7792H116.518M114.004 19.481L99.1786 44.7314C98.3563 46.1319 97.9451 46.8322 98.0059 47.4069C98.0589 47.9082 98.3252 48.3638 98.7387 48.6602C99.2127 49 100.033 49 101.675 49H131.325C132.967 49 133.787 49 134.261 48.6602C134.675 48.3638 134.941 47.9082 134.994 47.4069C135.055 46.8322 134.644 46.1319 133.821 44.7314L118.996 19.481C118.177 18.0854 117.767 17.3877 117.232 17.1533C116.766 16.9489 116.234 16.9489 115.768 17.1533C115.233 17.3877 114.823 18.0854 114.004 19.481Z" stroke="white" stroke-width="4" stroke-linecap="round" stroke-linejoin="round"/>
</svg>
