<svg width="216" height="165" viewBox="0 0 216 165" fill="none" xmlns="http://www.w3.org/2000/svg">
<g id="Group 427319186">
<g id="Group 427319185">
<path id="Vector" d="M67.8594 77.5574C67.6544 77.4652 67.52 77.2597 67.52 77.0329C67.52 76.721 67.7746 76.4658 68.0857 76.4658H70.8646V73.6803C70.8646 73.3684 71.1191 73.1133 71.4302 73.1133C71.7414 73.1133 71.9959 73.3684 71.9959 73.6803V77.607H68.0786C68.0079 77.607 67.9301 77.5857 67.8594 77.5574Z" fill="#110580"/>
<path id="Vector_2" d="M10.8184 77.5222C10.6134 77.4301 10.479 77.2245 10.479 76.9977C10.479 76.6858 10.7336 76.4307 11.0447 76.4307H18.1722C18.4833 76.4307 18.7378 76.6858 18.7378 76.9977C18.7378 77.3096 18.4833 77.5647 18.1722 77.5647H11.0447C10.9669 77.5647 10.8891 77.5505 10.8184 77.5222ZM25.0804 77.5222C24.7905 77.4017 24.6562 77.0615 24.7835 76.778C24.8754 76.5653 25.0804 76.4307 25.3138 76.4307H32.4413C32.7524 76.4307 33.0069 76.6858 33.0069 76.9977C33.0069 77.3096 32.7524 77.5647 32.4413 77.5647H25.3067C25.2289 77.5718 25.1512 77.5576 25.0804 77.5222ZM39.3425 77.5222C39.0526 77.4017 38.9182 77.0615 39.0455 76.778C39.1374 76.5653 39.3425 76.4307 39.5758 76.4307H46.7033C47.0144 76.4307 47.269 76.6858 47.269 76.9977C47.269 77.3096 47.0144 77.5647 46.7033 77.5647H39.5688C39.498 77.5647 39.4273 77.5576 39.3637 77.5364L39.3425 77.5222ZM53.5975 77.5222C53.3924 77.4301 53.258 77.2245 53.258 76.9977C53.258 76.6858 53.5126 76.4307 53.8237 76.4307H60.9371C61.2482 76.4307 61.5027 76.6858 61.5027 76.9977C61.5027 77.3096 61.2482 77.5647 60.9371 77.5647H53.8237C53.7459 77.5718 53.6682 77.5647 53.5975 77.5435V77.5222Z" fill="#110580"/>
<path id="Vector_3" d="M0 77.564V73.6373C0 73.3255 0.254553 73.0703 0.565673 73.0703C0.876794 73.0703 1.13135 73.3255 1.13135 73.6373V76.4229H3.91022C4.22134 76.4229 4.47589 76.678 4.47589 76.9899C4.47589 77.3018 4.22134 77.5569 3.91022 77.5569H0V77.564Z" fill="#110580"/>
<path id="Vector_4" d="M0.346239 67.5209C0.141182 67.4288 0.00683594 67.2233 0.00683594 66.9964V60.3551C0.00683594 60.0433 0.261389 59.7881 0.572509 59.7881C0.88363 59.7881 1.13818 60.0433 1.13818 60.3551V66.9964C1.13818 67.3083 0.88363 67.5635 0.572509 67.5635C0.494729 67.5706 0.416948 67.5564 0.346239 67.5209ZM0.346239 54.2454C0.141182 54.1533 0.00683594 53.9477 0.00683594 53.7209V47.0867C0.00683594 46.7748 0.261389 46.5197 0.572509 46.5197C0.88363 46.5197 1.13818 46.7748 1.13818 47.0867V53.7209C1.13818 54.0328 0.88363 54.2879 0.572509 54.2879C0.5018 54.2879 0.424019 54.2738 0.346239 54.2454ZM0.346239 40.977C0.141182 40.8848 0.00683594 40.6793 0.00683594 40.4525V33.8112C0.00683594 33.4993 0.261389 33.2441 0.572509 33.2441C0.88363 33.2441 1.13818 33.4993 1.13818 33.8112V40.4525C1.13818 40.7643 0.88363 41.0195 0.572509 41.0195C0.5018 41.0195 0.431091 41.0053 0.360382 40.977H0.346239Z" fill="#110580"/>
<path id="Vector_5" d="M0.367726 27.6941C0.162669 27.6019 0.0283203 27.3964 0.0283203 27.1696V23.25H3.94561C4.25673 23.25 4.51128 23.5052 4.51128 23.817C4.51128 24.1289 4.25673 24.3841 3.94561 24.3841H1.16674V27.1696C1.16674 27.4814 0.912185 27.7366 0.601065 27.7366C0.523285 27.7437 0.445506 27.7295 0.367726 27.6941Z" fill="#110580"/>
<path id="Vector_6" d="M10.8537 24.349C10.5638 24.2356 10.4153 23.9025 10.5355 23.6119C10.6204 23.3851 10.8396 23.2433 11.08 23.2504H18.2075C18.5186 23.2504 18.7732 23.5055 18.7732 23.8174C18.7732 24.1293 18.5186 24.3844 18.2075 24.3844H11.08C11.0022 24.3915 10.9244 24.3774 10.8537 24.349ZM25.1158 24.3844C24.8046 24.3207 24.5996 24.0159 24.6632 23.704C24.7269 23.3921 25.0309 23.1866 25.342 23.2504H32.4695C32.7806 23.2504 33.0352 23.5055 33.0352 23.8174C33.0352 24.1293 32.7806 24.3844 32.4695 24.3844H25.342C25.2643 24.3986 25.1865 24.3986 25.1158 24.3844ZM39.3637 24.3844C39.1586 24.2923 39.0243 24.0868 39.0243 23.8599C39.0243 23.5481 39.2788 23.2929 39.5899 23.2929H46.7457C47.0568 23.2929 47.3114 23.5481 47.3114 23.8599C47.3114 24.1718 47.0568 24.427 46.7457 24.427H39.597C39.5192 24.4341 39.4344 24.4199 39.3637 24.3844ZM53.6257 24.3844C53.4206 24.2923 53.2863 24.0868 53.2863 23.8599C53.2863 23.5481 53.5408 23.2929 53.852 23.2929H60.9795C61.2906 23.2929 61.5451 23.5481 61.5451 23.8599C61.5451 24.1718 61.2906 24.427 60.9795 24.427H53.852C53.7813 24.4341 53.7035 24.4128 53.6257 24.3844Z" fill="#110580"/>
<path id="Vector_7" d="M71.2396 27.7439C71.0346 27.6517 70.9002 27.4462 70.9002 27.2194V24.4339H68.1213C67.8102 24.4339 67.5557 24.1787 67.5557 23.8668C67.5557 23.555 67.8102 23.2998 68.1213 23.2998H72.0386V27.2406C72.0386 27.5525 71.7841 27.8077 71.473 27.8077C71.3881 27.8006 71.3103 27.7793 71.2396 27.7439Z" fill="#110580"/>
<path id="Vector_8" d="M71.211 67.5634C71.0059 67.4713 70.8716 67.2657 70.8716 67.0389V60.4047C70.8716 60.0928 71.1261 59.8377 71.4373 59.8377C71.7484 59.8377 72.0029 60.0928 72.0029 60.4047V67.0673C72.0029 67.3791 71.7484 67.6343 71.4373 67.6343C71.3595 67.6343 71.2817 67.606 71.211 67.5634ZM71.211 54.295C71.0059 54.2028 70.8716 53.9973 70.8716 53.7705V47.1504C70.8716 46.8386 71.1261 46.5834 71.4373 46.5834C71.7484 46.5834 72.0029 46.8386 72.0029 47.1504V53.7705C72.0029 54.0823 71.7484 54.3375 71.4373 54.3375C71.3665 54.3375 71.2888 54.3233 71.211 54.295ZM71.211 41.0124C71.0059 40.9202 70.8716 40.7147 70.8716 40.4879V33.8536C70.8716 33.5418 71.1261 33.2866 71.4373 33.2866C71.7484 33.2866 72.0029 33.5418 72.0029 33.8536V40.4879C72.0029 40.7997 71.7484 41.0549 71.4373 41.0549C71.3665 41.0549 71.2958 41.0407 71.2251 41.0124H71.211Z" fill="#110580"/>
<path id="Vector_9" d="M36.9036 32.7974H156.996C161.267 32.7974 164.732 36.2704 164.732 40.5515V116.611C164.732 120.892 161.267 124.365 156.996 124.365H36.9036C32.6327 124.365 29.168 120.892 29.168 116.611V40.5444C29.175 36.2704 32.6327 32.7974 36.9036 32.7974Z" fill="#C5CFD6"/>
<path id="Vector_10" d="M36.3513 37.688H157.54C158.671 37.688 159.59 38.6094 159.59 39.7435V115.718C159.59 116.852 158.671 117.774 157.54 117.774H36.3513C35.22 117.774 34.3008 116.852 34.3008 115.718V39.7364C34.3079 38.6023 35.22 37.688 36.3513 37.688Z" fill="#E8EAF7"/>
<path id="Vector_11" d="M179.516 161.081H14.3822C11.8154 161.074 9.74365 158.99 9.74365 156.417C9.74365 155.659 9.9275 154.922 10.281 154.249L27.025 128.392C28.3402 125.918 30.914 124.366 33.7141 124.366H160.177C162.977 124.366 165.551 125.911 166.874 128.392L183.617 154.249C184.812 156.524 183.95 159.338 181.68 160.535C181.008 160.897 180.266 161.081 179.516 161.081Z" fill="#F2F2F2"/>
<path id="Vector_12" d="M184.134 156.289C184.219 158.855 182.203 161.002 179.644 161.088C179.594 161.088 179.545 161.088 179.495 161.088H14.3822C11.8225 161.088 9.74365 159.011 9.74365 156.438C9.74365 156.388 9.74365 156.339 9.74365 156.289V160.407C9.77901 162.952 11.8437 165 14.3822 165H179.516C182.048 164.986 184.105 162.945 184.141 160.407V156.289H184.134Z" fill="#C5CFD6"/>
<path id="Vector_13" d="M129.093 157.714H64.8118C63.9916 157.714 63.3269 157.048 63.3198 156.225C63.3198 155.977 63.3835 155.736 63.4966 155.517L66.0492 147.231C66.4664 146.437 67.2937 145.934 68.1988 145.941H125.742C126.64 145.941 127.467 146.437 127.891 147.231L130.416 155.517C130.805 156.24 130.536 157.147 129.808 157.537C129.581 157.65 129.341 157.714 129.093 157.714Z" fill="#DDE3E8"/>
<path id="Vector_14" d="M152.668 143.092H41.2372C40.2685 143.092 39.4766 142.305 39.4766 141.334C39.4766 141.043 39.5473 140.76 39.6816 140.498L44.3767 130.695C44.8717 129.745 45.8475 129.157 46.9152 129.164H146.99C148.05 129.164 149.026 129.752 149.528 130.695L154.223 140.476C154.69 141.334 154.379 142.404 153.523 142.872C153.262 143.021 152.965 143.099 152.668 143.092Z" fill="#DDE3E8"/>
<path id="Vector_15" d="M34.3081 44.7974H159.605V115.711C159.605 116.845 158.693 117.76 157.561 117.76H36.3516C35.2203 117.76 34.3081 116.845 34.3081 115.711V44.7974Z" fill="white"/>
<path id="Vector_16" d="M60.0891 51.3462H73.1137C73.439 51.3462 73.7077 51.6084 73.7077 51.9416V64.9974C73.7077 65.3234 73.446 65.5928 73.1137 65.5928H60.0891C59.7638 65.5928 59.4951 65.3305 59.4951 64.9974V51.9345C59.5022 51.6084 59.7638 51.3462 60.0891 51.3462Z" fill="#E8E8F7"/>
<path id="Vector_17" d="M86.0462 62.978H133.103C133.824 62.978 134.404 63.5592 134.404 64.2822V64.2893C134.404 65.0122 133.824 65.5934 133.103 65.5934H86.0462C85.3249 65.5934 84.7451 65.0122 84.7451 64.2893V64.2822C84.7451 63.5592 85.3249 62.978 86.0462 62.978Z" fill="#E8E8F7"/>
<path id="Vector_18" d="M86.0462 57.1587H119.895C120.616 57.1587 121.196 57.7399 121.196 58.4629V58.4699C121.196 59.1929 120.616 59.7741 119.895 59.7741H86.0462C85.3249 59.7741 84.7451 59.1929 84.7451 58.4699V58.4629C84.7451 57.747 85.3249 57.1587 86.0462 57.1587Z" fill="#E8E8F7"/>
<path id="Vector_19" d="M86.0462 51.3462H126.499C127.22 51.3462 127.8 51.9274 127.8 52.6504V52.6574C127.8 53.3804 127.22 53.9616 126.499 53.9616H86.0462C85.3249 53.9616 84.7451 53.3804 84.7451 52.6574V52.6504C84.7451 51.9274 85.3249 51.3462 86.0462 51.3462Z" fill="#E8E8F7"/>
<path id="Vector_20" d="M60.0891 74.5098H73.1137C73.439 74.5098 73.7077 74.772 73.7077 75.1051V88.1609C73.7077 88.487 73.446 88.7563 73.1137 88.7563H60.0891C59.7638 88.7563 59.4951 88.4941 59.4951 88.1609V75.1051C59.5022 74.7791 59.7638 74.5098 60.0891 74.5098Z" fill="#E8E8F7"/>
<path id="Vector_21" d="M86.0462 86.1411H133.103C133.824 86.1411 134.404 86.7223 134.404 87.4453V87.4524C134.404 88.1753 133.824 88.7565 133.103 88.7565H86.0462C85.3249 88.7565 84.7451 88.1753 84.7451 87.4524V87.4453C84.7451 86.7223 85.3249 86.1411 86.0462 86.1411Z" fill="#E8E8F7"/>
<path id="Vector_22" d="M86.0462 80.3291H119.895C120.616 80.3291 121.196 80.9103 121.196 81.6333V81.6404C121.196 82.3633 120.616 82.9445 119.895 82.9445H86.0462C85.3249 82.9445 84.7451 82.3633 84.7451 81.6404V81.6333C84.7451 80.9103 85.3249 80.3291 86.0462 80.3291Z" fill="#E8E8F7"/>
<path id="Vector_23" d="M86.0462 74.5098H126.499C127.22 74.5098 127.8 75.091 127.8 75.8139V75.821C127.8 76.544 127.22 77.1252 126.499 77.1252H86.0462C85.3249 77.1252 84.7451 76.544 84.7451 75.821V75.8139C84.7451 75.0981 85.3249 74.5098 86.0462 74.5098Z" fill="#E8E8F7"/>
<path id="Vector_24" d="M60.0891 97.6797H73.1137C73.439 97.6797 73.7077 97.9419 73.7077 98.2751V111.331C73.7077 111.657 73.446 111.926 73.1137 111.926H60.0891C59.7638 111.926 59.4951 111.664 59.4951 111.331V98.2751C59.5022 97.9419 59.7638 97.6797 60.0891 97.6797Z" fill="#E8E8F7"/>
<path id="Vector_25" d="M86.0462 109.304H133.103C133.824 109.304 134.404 109.885 134.404 110.608V110.615C134.404 111.338 133.824 111.919 133.103 111.919H86.0462C85.3249 111.919 84.7451 111.338 84.7451 110.615V110.608C84.7451 109.892 85.3249 109.304 86.0462 109.304Z" fill="#E8E8F7"/>
<path id="Vector_26" d="M86.0462 103.491H119.895C120.616 103.491 121.196 104.072 121.196 104.795V104.802C121.196 105.525 120.616 106.107 119.895 106.107H86.0462C85.3249 106.107 84.7451 105.525 84.7451 104.802V104.795C84.7451 104.072 85.3249 103.491 86.0462 103.491Z" fill="#E8E8F7"/>
<path id="Vector_27" d="M86.0462 97.6797H126.499C127.22 97.6797 127.8 98.2609 127.8 98.9838V98.9909C127.8 99.7139 127.22 100.295 126.499 100.295H86.0462C85.3249 100.295 84.7451 99.7139 84.7451 98.9909V98.9838C84.7451 98.2609 85.3249 97.6797 86.0462 97.6797Z" fill="#E8E8F7"/>
<path id="Vector_28" d="M215.168 51.6654C215.224 51.6512 215.288 51.6512 215.352 51.6654C215.585 51.7292 215.726 51.9773 215.663 52.2112C215.663 52.2183 215.656 52.2254 215.656 52.2324C215.394 53.1042 215.04 53.9406 214.602 54.7345C214.482 54.9471 214.213 55.0251 213.994 54.9046C213.782 54.7841 213.704 54.5147 213.824 54.295C214.234 53.5579 214.56 52.7782 214.8 51.9702C214.85 51.8072 214.991 51.6867 215.168 51.6654Z" fill="#110580"/>
<path id="Vector_29" d="M141.786 33.2372C141.836 33.2302 141.892 33.2302 141.942 33.2372L142.578 33.3932C144.063 33.7547 145.591 34.1374 147.203 34.5839C147.443 34.6477 147.577 34.8958 147.514 35.1368C147.514 35.1439 147.514 35.1439 147.507 35.151C147.45 35.3849 147.21 35.5266 146.976 35.4699C146.962 35.4699 146.948 35.4628 146.941 35.4557C145.343 35.0092 143.816 34.6336 142.345 34.2721L141.702 34.1161C141.468 34.0594 141.32 33.8185 141.376 33.5846C141.433 33.3932 141.595 33.2514 141.786 33.2372ZM152.188 36.2425C152.251 36.2283 152.322 36.2283 152.393 36.2425C154.104 36.8733 155.773 37.6246 157.385 38.4823C157.604 38.5957 157.682 38.865 157.569 39.0847C157.456 39.3044 157.187 39.3824 156.968 39.269C155.391 38.4326 153.757 37.7026 152.082 37.0859C151.848 37.0009 151.728 36.7528 151.813 36.5189C151.87 36.3559 152.011 36.2425 152.181 36.2283L152.188 36.2425ZM161.649 41.3954C161.769 41.3812 161.889 41.4166 161.981 41.4946C163.423 42.6286 164.739 43.9186 165.912 45.3362C166.068 45.5276 166.047 45.804 165.856 45.9599C165.665 46.1159 165.382 46.0875 165.226 45.8961C164.095 44.5282 162.822 43.2878 161.436 42.1892C161.246 42.0403 161.21 41.7568 161.359 41.5655C161.429 41.4733 161.535 41.4095 161.649 41.3954ZM168.465 49.6881C168.649 49.6669 168.833 49.759 168.91 49.9291C169.752 51.5593 170.417 53.2746 170.89 55.0536C170.975 55.2875 170.862 55.5427 170.629 55.6348C170.395 55.7199 170.141 55.6065 170.049 55.3726C170.035 55.3442 170.028 55.3159 170.028 55.2804C169.575 53.5581 168.939 51.8995 168.119 50.3189C168.005 50.1063 168.09 49.837 168.302 49.7236L168.309 49.7165C168.359 49.6952 168.415 49.6881 168.472 49.6881H168.465ZM166.231 55.7341C167.228 55.6136 168.232 55.564 169.236 55.5923C169.483 55.5994 169.674 55.8049 169.674 56.0459C169.667 56.294 169.462 56.4854 169.222 56.4783C168.26 56.457 167.291 56.5066 166.337 56.62C165.545 56.7122 164.753 56.861 163.982 57.0595C163.742 57.1162 163.501 56.9744 163.445 56.7334C163.367 56.4995 163.494 56.2515 163.727 56.1735C163.742 56.1664 163.756 56.1664 163.763 56.1664C164.576 55.9609 165.403 55.8049 166.231 55.7057V55.7341ZM174.525 56.3011C174.574 56.294 174.624 56.294 174.673 56.3011C176.448 56.7122 178.195 57.2083 179.92 57.7966C180.146 57.8959 180.245 58.1652 180.146 58.392C180.061 58.5834 179.849 58.6897 179.637 58.6472C177.947 58.073 176.229 57.584 174.489 57.18C174.249 57.1233 174.101 56.8752 174.157 56.6342C174.199 56.457 174.348 56.3223 174.525 56.3011ZM158.912 58.4133C159.075 58.392 159.23 58.4629 159.329 58.5975C159.471 58.796 159.428 59.0724 159.23 59.2142C158.481 59.7529 157.795 60.3766 157.194 61.0783C156.671 61.6949 156.239 62.3825 155.914 63.1125C155.787 63.3251 155.511 63.396 155.299 63.2684C155.115 63.1621 155.037 62.9424 155.101 62.7439C155.469 61.9217 155.942 61.1563 156.522 60.4687C157.173 59.7103 157.908 59.037 158.721 58.4629C158.785 58.4204 158.863 58.4062 158.94 58.4062L158.912 58.4133ZM171.124 60.1214H171.18C171.428 60.1214 171.626 60.3199 171.626 60.568C171.64 62.4321 171.336 64.282 170.728 66.0398C170.643 66.2666 170.388 66.3871 170.162 66.3162C169.936 66.2312 169.816 65.976 169.893 65.7492C170.466 64.0835 170.756 62.3328 170.742 60.568C170.728 60.327 170.904 60.1214 171.145 60.1002L171.124 60.1214ZM184.841 59.5473C184.905 59.5331 184.969 59.5331 185.032 59.5473C185.633 59.7529 186.234 59.9513 186.835 60.1143C188.009 60.49 189.105 60.8019 190.18 61.0712C190.42 61.1279 190.569 61.3689 190.512 61.6028C190.456 61.8438 190.215 61.9926 189.982 61.9359C188.893 61.6595 187.776 61.3689 186.574 60.972C185.966 60.7806 185.357 60.5892 184.749 60.4049C184.516 60.3341 184.389 60.0789 184.459 59.845C184.523 59.682 184.672 59.5615 184.841 59.5473ZM210.657 58.1935C210.806 58.1794 210.961 58.2361 211.053 58.3566C211.209 58.5479 211.18 58.8244 210.989 58.9803C209.547 60.1498 207.935 61.0854 206.21 61.7516C205.983 61.8367 205.736 61.7233 205.644 61.5036C205.566 61.2768 205.679 61.0287 205.898 60.9365C207.539 60.2986 209.073 59.4126 210.438 58.2999C210.509 58.2361 210.586 58.2006 210.678 58.1794L210.657 58.1935ZM195.327 62.0706H195.426C197.187 62.2691 198.969 62.2832 200.737 62.1202C200.984 62.0919 201.203 62.2691 201.225 62.5171C201.253 62.7652 201.076 62.9849 200.829 63.0062C199.004 63.1763 197.159 63.1621 195.342 62.9566C195.101 62.9282 194.924 62.7085 194.953 62.4675C194.974 62.2549 195.144 62.0777 195.356 62.0564L195.327 62.0706ZM154.663 67.7621C154.896 67.7338 155.115 67.8968 155.15 68.1307C155.348 69.527 156.056 70.7957 157.13 71.703C157.35 71.8802 157.583 72.0432 157.823 72.1849C158.035 72.3054 158.106 72.5819 157.986 72.7945C157.859 73.0071 157.59 73.078 157.371 72.9575C157.088 72.7874 156.819 72.596 156.565 72.3905C155.327 71.3486 154.521 69.8814 154.295 68.2725C154.267 68.0386 154.422 67.8117 154.663 67.7621ZM167.426 69.9877C167.56 69.9664 167.701 70.0161 167.793 70.1153C167.97 70.2854 167.97 70.5689 167.8 70.7461C167.8 70.7461 167.8 70.7461 167.793 70.7532C166.45 72.0857 164.781 73.0426 162.964 73.5458C162.73 73.6096 162.483 73.4678 162.419 73.2268C162.356 72.993 162.497 72.7449 162.738 72.6811C164.413 72.2133 165.941 71.3273 167.178 70.1082C167.256 70.0373 167.355 70.0019 167.454 70.0019L167.426 69.9877Z" fill="#110580"/>
<path id="Vector_30" d="M134.178 30.6003C134.291 30.5861 134.397 30.6144 134.489 30.6782C135.189 31.146 135.953 31.5146 136.752 31.7839C136.985 31.869 137.098 32.1241 137.014 32.358C136.929 32.5919 136.674 32.7053 136.441 32.6203C135.578 32.3297 134.751 31.9257 133.994 31.4154C133.796 31.2665 133.754 30.9901 133.895 30.7845C133.966 30.6853 134.079 30.6215 134.199 30.6073L134.178 30.6003Z" fill="#110580"/>
<path id="Vector_31" d="M133.209 106.908C143.085 106.908 151.091 98.8826 151.091 88.9828C151.091 79.083 143.085 71.0576 133.209 71.0576C123.332 71.0576 115.326 79.083 115.326 88.9828C115.326 98.8826 123.332 106.908 133.209 106.908Z" fill="#E8EBFF"/>
<path id="Vector_32" d="M148.482 98.3391C149.769 96.227 152.519 95.5536 154.633 96.8436L181.991 113.578C184.098 114.868 184.77 117.625 183.483 119.744C182.196 121.857 179.445 122.53 177.331 121.24L149.974 104.506C147.867 103.216 147.195 100.458 148.482 98.3391Z" fill="#2B31BA"/>
<path id="Vector_33" d="M133.839 85.6587H115.638L115.567 86.091C115.419 86.9912 115.341 87.8984 115.334 88.8128V89.3373H133.846C134.857 89.3373 135.677 88.5151 135.677 87.5015C135.677 86.488 134.857 85.6658 133.846 85.6658C133.846 85.6587 133.839 85.6587 133.839 85.6587Z" fill="#CFCFEB"/>
<path id="Vector_34" d="M122.292 81.6116C122.292 80.5981 121.472 79.7759 120.46 79.7759H117.795L117.646 80.0452C117.165 80.917 116.755 81.8243 116.416 82.7669L116.168 83.4616H120.46C121.472 83.4474 122.292 82.6252 122.292 81.6116Z" fill="#CFCFEB"/>
<path id="Vector_35" d="M128.98 75.7217C128.973 74.7082 128.153 73.8931 127.149 73.8931H123.104L122.97 73.9923C121.881 74.779 120.884 75.6863 119.986 76.6928L119.229 77.5504H127.135C128.146 77.5575 128.973 76.7353 128.98 75.7217C128.98 75.7288 128.98 75.7288 128.98 75.7217Z" fill="#CFCFEB"/>
<path id="Vector_36" d="M127.149 97.3398H117.243L117.667 98.1053C118.197 99.0622 118.805 99.9765 119.498 100.827L119.654 101.011H127.156C128.167 101.011 128.987 100.189 128.987 99.1756C128.98 98.162 128.16 97.3398 127.149 97.3398Z" fill="#CFCFEB"/>
<path id="Vector_37" d="M114.379 77.472C108.036 87.8982 111.324 101.5 121.718 107.865C132.12 114.222 145.689 110.927 152.039 100.507C158.381 90.0813 155.093 76.4797 144.699 70.1219C134.305 63.7641 120.736 67.0529 114.386 77.472C114.386 77.4649 114.379 77.4649 114.379 77.472ZM148.475 98.3244C143.334 106.78 132.325 109.452 123.896 104.299C115.461 99.1466 112.795 88.1108 117.936 79.6621C123.076 71.2134 134.085 68.5342 142.514 73.6871C150.95 78.84 153.615 89.8686 148.475 98.3244Z" fill="#2B31BA"/>
<path id="Vector_38" d="M140.464 78.4505C142.295 80.0949 142.839 82.2283 142.436 83.7947C141.991 85.5029 144.706 85.106 145.145 83.5537C145.929 80.9454 144.939 78.1244 142.691 76.5793C140.131 74.8711 136.942 74.3962 133.994 75.268C133.47 75.3673 133.131 75.8776 133.23 76.4021C133.244 76.4871 133.28 76.5793 133.315 76.6573C133.972 77.4227 134.8 77.1888 136.822 77.1888C138.144 77.1818 139.431 77.6212 140.464 78.4505Z" fill="white"/>
<path id="Vector_39" d="M99.0606 54.4102C98.7596 54.5402 98.4349 54.6065 98.1069 54.605C97.779 54.6034 97.4549 54.534 97.1551 54.4012C96.8554 54.2684 96.5864 54.0751 96.3652 53.8333C96.144 53.5915 95.9753 53.3067 95.8699 52.9966C95.6156 52.3321 95.3953 51.655 95.2098 50.9682C95.0839 50.3138 95.8862 48.9887 96.8052 47.4097C97.2146 46.769 97.5024 46.0585 97.6542 45.3137C97.7255 44.6815 97.6189 44.042 97.3463 43.467C97.2082 43.0998 96.9917 42.7671 96.7117 42.492C96.4318 42.2169 96.0951 42.006 95.7253 41.874C95.0054 41.6288 94.2186 41.6696 93.5282 41.9881C92.0572 42.6247 91.4072 43.8295 91.5783 45.6025C91.629 46.1743 91.4766 46.7457 91.1479 47.2166C90.8191 47.6875 90.3349 48.0279 89.78 48.1782C89.4244 48.2749 89.0516 48.2897 88.6894 48.2217C88.3272 48.1537 87.9852 48.0046 87.6891 47.7856C87.393 47.5666 87.1505 47.2834 86.9798 46.9573C86.8091 46.6312 86.7146 46.2707 86.7036 45.9029C86.6399 44.5666 86.9058 43.2351 87.478 42.0254C88.4109 40.1002 89.9511 38.6726 92.0984 37.7426C94.2909 36.7925 96.4024 36.6271 98.4332 37.2466C99.3945 37.5167 100.282 38.0018 101.027 38.6652C101.773 39.3286 102.357 40.1527 102.736 41.0752C103.78 43.4739 103.417 46.0147 101.647 48.6976C100.879 49.8697 100.468 50.7035 100.413 51.1987C100.398 51.4004 100.409 51.6034 100.448 51.8019C100.544 52.3285 100.459 52.872 100.208 53.3445C99.9558 53.817 99.5516 54.1909 99.0606 54.4056V54.4102ZM102.167 60.7656L101.969 60.8518C101.64 60.9945 101.286 61.0711 100.927 61.077C100.568 61.083 100.211 61.0182 99.8776 60.8865C99.5437 60.7548 99.2392 60.5587 98.9814 60.3094C98.7235 60.0601 98.5174 59.7624 98.3749 59.4335C98.0858 58.7705 98.0722 58.0199 98.3373 57.3469C98.6024 56.6739 99.1243 56.1336 99.7883 55.8448L99.9865 55.7586C100.316 55.6159 100.67 55.5394 101.029 55.5334C101.388 55.5275 101.744 55.5922 102.078 55.7239C102.412 55.8556 102.716 56.0518 102.974 56.3011C103.232 56.5504 103.438 56.848 103.581 57.1769C103.87 57.8399 103.883 58.5905 103.618 59.2635C103.353 59.9365 102.831 60.4768 102.167 60.7656Z" fill="#FE7624"/>
<path id="Vector_40" d="M111.469 24.5918C111.022 24.568 110.585 24.4518 110.185 24.2505C109.785 24.0492 109.432 23.7673 109.147 23.4225C108.862 23.0777 108.651 22.6776 108.529 22.2475C108.407 21.8174 108.376 21.3667 108.437 20.9239C108.631 19.5382 108.694 18.6835 108.873 18.0454C109.106 17.1698 110.907 16.0426 112.995 14.6779C114.083 13.9653 114.854 13.2876 115.308 12.6448C115.782 11.9179 116.043 11.0735 116.062 10.2065C116.128 8.99087 115.795 8.01353 115.061 7.27451C114.332 6.53621 113.347 6.10598 112.309 6.07282C110.132 5.95172 108.603 7.02454 107.723 9.29129C107.435 10.0202 106.9 10.6246 106.21 10.9985C105.52 11.3724 104.721 11.4919 103.952 11.336C103.458 11.2376 102.993 11.0284 102.592 10.7241C102.191 10.4199 101.865 10.0287 101.638 9.58C101.411 9.13131 101.289 8.63693 101.281 8.13423C101.274 7.63154 101.38 7.13368 101.594 6.67832C102.337 5.01183 103.48 3.55318 104.92 2.4305C107.234 0.654366 109.984 -0.148311 113.172 0.0224713C116.425 0.202569 119.101 1.28937 121.2 3.28286C123.299 5.27635 124.269 7.70845 124.108 10.5791C123.911 14.1392 121.913 17.0145 118.114 19.2052C116.463 20.1693 115.452 20.9363 115.082 21.5061C114.939 21.7425 114.83 21.9971 114.756 22.263C114.55 22.9636 114.114 23.5745 113.517 23.9971C112.921 24.4196 112.199 24.6292 111.469 24.5918ZM111.374 34.2333H111.077C110.09 34.178 109.166 33.7339 108.506 32.9987C107.847 32.2634 107.507 31.297 107.56 30.3115C107.585 29.8219 107.707 29.3421 107.918 28.8996C108.129 28.457 108.425 28.0604 108.79 27.7324C109.155 27.4044 109.581 27.1516 110.044 26.9883C110.507 26.825 110.998 26.7546 111.488 26.7809L111.784 26.7972C112.275 26.8246 112.755 26.9484 113.197 27.1615C113.64 27.3746 114.036 27.6729 114.363 28.0392C114.69 28.4056 114.941 28.8327 115.102 29.2962C115.263 29.7596 115.331 30.2503 115.301 30.74C115.241 31.7221 114.794 32.6406 114.059 33.295C113.323 33.9495 112.358 34.2867 111.374 34.2333Z" fill="#FE7624"/>
</g>
</g>
</svg>
