<svg width="151" height="143" viewBox="0 0 151 143" fill="none" xmlns="http://www.w3.org/2000/svg">
<rect width="150" height="114" rx="8" fill="#F2F2F2"/>
<rect x="117" y="14.1914" width="28.3817" height="27.0916" rx="8" fill="white"/>
<path fill-rule="evenodd" clip-rule="evenodd" d="M130.546 32.2523C134.109 32.2523 136.996 29.3644 136.996 25.8019C136.996 22.2395 134.109 19.3516 130.546 19.3516C126.984 19.3516 124.096 22.2395 124.096 25.8019C124.096 29.3644 126.984 32.2523 130.546 32.2523Z" fill="#DDE3E9"/>
<rect x="120.679" y="31.1914" width="20.4084" height="1.9776" rx="0.988801" fill="#DDE3E9"/>
<rect x="123.945" y="34.4863" width="13.8777" height="1.9776" rx="0.988801" fill="#DDE3E9"/>
<path d="M0 8C0 3.58172 3.58172 0 8 0H142C146.418 0 150 3.58172 150 8V9H0V8Z" fill="#C5CFD6"/>
<g clip-path="url(#clip0_7853_123058)">
<rect x="101.916" y="43.8613" width="28.3817" height="63.8588" rx="8" fill="white"/>
</g>
<g clip-path="url(#clip1_7853_123058)">
<g clip-path="url(#clip2_7853_123058)">
<rect x="6" y="15" width="106" height="16" rx="4" fill="white"/>
<g clip-path="url(#clip3_7853_123058)">
<rect x="15" y="19.6504" width="48" height="2.325" rx="1.1625" fill="#DDE3E9"/>
<rect x="15" y="23.5254" width="32.2192" height="2.325" rx="1.1625" fill="#DDE3E9"/>
</g>
</g>
<g clip-path="url(#clip4_7853_123058)">
<rect x="6" y="48.6387" width="106" height="13" rx="4" fill="white"/>
<g clip-path="url(#clip5_7853_123058)">
<rect x="15" y="52.498" width="48" height="1.92926" rx="0.964628" fill="#DDE3E9"/>
<rect x="15" y="55.7129" width="32.2192" height="1.92926" rx="0.964628" fill="#DDE3E9"/>
</g>
</g>
<g clip-path="url(#clip6_7853_123058)">
<rect x="6" y="95.1387" width="106" height="13" rx="4" fill="white"/>
<g clip-path="url(#clip7_7853_123058)">
<rect x="15" y="98.998" width="48" height="1.92926" rx="0.964628" fill="#DDE3E9"/>
<rect x="15" y="102.213" width="32.2192" height="1.92926" rx="0.964628" fill="#DDE3E9"/>
</g>
</g>
<g clip-path="url(#clip8_7853_123058)">
<rect x="6" y="79.6387" width="106" height="13" rx="4" fill="white"/>
<g clip-path="url(#clip9_7853_123058)">
<rect x="15" y="83.498" width="48" height="1.92926" rx="0.964628" fill="#DDE3E9"/>
<rect x="15" y="86.7129" width="32.2192" height="1.92926" rx="0.964628" fill="#DDE3E9"/>
</g>
</g>
<g clip-path="url(#clip10_7853_123058)">
<rect x="6" y="64.1387" width="106" height="13" rx="4" fill="white"/>
<g clip-path="url(#clip11_7853_123058)">
<rect x="15" y="67.998" width="48" height="1.92926" rx="0.964628" fill="#DDE3E9"/>
<rect x="15" y="71.2129" width="32.2192" height="1.92926" rx="0.964628" fill="#DDE3E9"/>
</g>
</g>
</g>
<path fill-rule="evenodd" clip-rule="evenodd" d="M115.252 45.7123C113.038 47.046 110.863 47.6904 109.842 47.4274C107.281 46.7677 107.046 37.4057 109.027 33.7149C111.008 30.0241 121.192 28.4154 121.706 35.728C121.884 38.266 120.818 40.531 119.242 42.3792L122.067 55.5383H113.862L115.252 45.7123Z" fill="#B28B67"/>
<path fill-rule="evenodd" clip-rule="evenodd" d="M119.872 44.0247C120.902 39.4455 123.836 36.324 123.388 34.2773C122.94 32.2306 121 31.7317 121 31.7317C121 31.7317 119.996 27.674 114.526 28.2799C109.057 28.8858 105.719 31.1562 107.16 36.1519C108.485 36.1519 110.085 35.6729 112.297 36.4936C113.35 36.8843 113.804 38.9164 113.804 38.9164H114.803C114.803 38.9164 116.259 36.5048 117.673 37.144C119.088 37.7832 118.316 40.2492 118.316 40.2492L118.809 44.0247H119.872Z" fill="#191847"/>
<path fill-rule="evenodd" clip-rule="evenodd" d="M134.442 98.25C143.278 98.25 150.442 105.413 150.442 114.25V124.622C150.442 133.458 143.278 140.622 134.442 140.622H116.187C107.35 140.622 100.187 133.458 100.187 124.622V114.25C100.187 105.413 107.35 98.25 116.187 98.25H134.442ZM136.87 107.818C139.079 107.818 140.87 109.609 140.87 111.818V127.054C140.87 129.263 139.079 131.054 136.87 131.054H113.759C111.55 131.054 109.759 129.263 109.759 127.054V111.818C109.759 109.609 111.55 107.818 113.759 107.818H136.87Z" fill="#C5CFD6"/>
<path fill-rule="evenodd" clip-rule="evenodd" d="M66.2875 138.913C73.0278 130.686 77.5884 124.587 79.9694 120.616C84.0462 113.816 87.3829 107.766 88.4359 105.455C90.9468 99.9434 82.6552 97.3626 80.7787 99.9334C77.9384 103.824 71.8726 116.068 62.5813 136.664L66.2875 138.913Z" fill="#B28B67"/>
<path fill-rule="evenodd" clip-rule="evenodd" d="M80.0996 136.521L92.6437 104.96C95.3266 99.2064 82.3703 95.4245 80.3985 98.102C75.9221 104.181 65.2825 128.161 63.9488 129.972L80.0996 136.521Z" fill="#2F3676"/>
<path fill-rule="evenodd" clip-rule="evenodd" d="M113.508 130.193C111.065 126.63 102.177 114.644 97.336 109.685C95.9449 108.26 94.5875 106.892 93.3037 105.617C89.4877 101.829 81.8887 108.197 85.6976 111.647C95.1834 120.241 109.024 131.843 110.18 132.877C111.801 134.327 115.044 132.432 113.508 130.193Z" fill="#B28B67"/>
<path fill-rule="evenodd" clip-rule="evenodd" d="M111.01 129.824C111.834 128.993 113.166 128.711 113.984 129.549C114.237 129.808 114.456 130.064 114.58 130.279C115.042 131.079 115.663 132.769 115.663 132.769C114.734 133.305 98.9639 142.405 98.9639 142.405C98.9639 142.405 97.0705 140.63 98.3739 139.649C99.6772 138.668 100.525 137.995 100.525 137.995L105.891 130.605C106.222 130.15 106.864 130.057 107.311 130.401L107.972 130.909C107.972 130.909 109.62 130.766 110.431 130.297C110.614 130.191 110.813 130.022 111.01 129.824Z" fill="#E4E4E4"/>
<path fill-rule="evenodd" clip-rule="evenodd" d="M66.8969 137.796C68.0264 137.489 69.3201 137.91 69.6098 139.044C69.6995 139.395 69.7607 139.726 69.7607 139.974C69.7607 140.899 69.4526 142.672 69.4526 142.672C68.3799 142.672 50.1705 142.672 50.1705 142.672C50.1705 142.672 49.4189 140.188 51.0383 139.99C52.6576 139.792 53.7287 139.633 53.7287 139.633L62.0727 135.915C62.5872 135.685 63.1894 135.926 63.4042 136.447L63.7222 137.218C63.7222 137.218 65.2213 137.917 66.1586 137.917C66.3702 137.917 66.6266 137.869 66.8969 137.796Z" fill="#E4E4E4"/>
<path fill-rule="evenodd" clip-rule="evenodd" d="M97.1574 106.537C97.1574 106.537 112.796 103.99 118.108 103.054C128.201 101.275 131.144 95.8465 129.404 84.002L110.808 84.002C107.116 85.0674 79.9595 97.1814 79.9595 97.1814C76.7021 98.7976 77.3087 103.563 77.9041 105.133C77.9406 105.229 94.3779 133.348 94.3779 133.348L109.59 123.661L97.1288 107.678C97.1288 107.678 96.6352 106.684 97.1574 106.537Z" fill="#5C63AB"/>
<path fill-rule="evenodd" clip-rule="evenodd" d="M84.9125 87.5333L95.8175 79.5293L98.2282 85.4856L87.4293 89.9614C84.3752 93.5473 82.6674 95.0421 82.306 94.446C82.0012 93.9433 82.2394 93.4727 82.4589 93.0393C82.6298 92.7017 82.7894 92.3866 82.6719 92.0964C82.4037 91.4336 80.3521 91.5034 78.4081 91.6528C76.4641 91.8022 77.0306 90.9376 77.4993 90.5107C79.4838 89.3235 81.9548 88.331 84.9125 87.5333ZM142.101 101.636C141.099 99.605 137.688 79.8054 137.688 79.8054L130.543 79.8335C130.543 79.8335 137.16 101.183 137.688 102.49C138.373 104.187 137.209 106.652 136.42 108.324C136.298 108.583 136.185 108.823 136.089 109.037C137.184 109.527 137.71 108.935 138.264 108.311C138.89 107.606 139.553 106.861 141.113 107.586C141.716 107.866 142.286 108.198 142.843 108.521C144.768 109.64 146.536 110.667 148.942 109.183C149.323 108.948 149.741 108.063 148.731 107.371C146.216 105.647 142.591 102.63 142.101 101.636Z" fill="#B28B67"/>
<path fill-rule="evenodd" clip-rule="evenodd" d="M117.385 49.8415L114.429 49.3347C103.46 58.8052 98.9552 76.9992 85.5107 86.6374L88.7467 90.6465C112.07 87.7601 117.851 65.5678 117.385 49.8415Z" fill="#E87613"/>
<path fill-rule="evenodd" clip-rule="evenodd" d="M130.271 86.974C130.271 86.974 112.492 86.974 104.114 86.974C102.919 86.974 103.144 85.2489 103.317 84.3785C105.311 74.3322 113.095 63.5027 113.095 49.2021L120.64 48.0195C126.881 58.0515 129.039 70.4028 130.271 86.974Z" fill="#DDE3E9"/>
<path fill-rule="evenodd" clip-rule="evenodd" d="M129.269 57.7619C130.642 57.664 131.882 57.0898 132.665 55.6769C135.423 50.7033 134.427 47.965 131.48 47.0649C129.859 46.57 128.335 46.9078 126.511 47.3122C125.017 47.6432 123.322 48.0189 121.209 48.0189C121.002 48.0189 120.813 48.0329 120.642 48.0598L118.145 48.2023C118.145 48.2023 107.98 82.6362 112.538 94.1498H133.213C134.389 96.9718 135.541 99.4342 136.628 101.326H142.237C142.841 81.8201 135.452 66.8114 129.269 57.7619Z" fill="#FF9B21"/>
<path fill-rule="evenodd" clip-rule="evenodd" d="M133.212 94.1492C131.67 90.4466 130.089 86.1251 128.567 81.6621C128 86.5771 127.056 91.5135 125.485 94.1492H133.212Z" fill="black" fill-opacity="0.1"/>
<defs>
<clipPath id="clip0_7853_123058">
<rect width="28.3817" height="63.8588" fill="white" transform="translate(101.916 43.8613)"/>
</clipPath>
<clipPath id="clip1_7853_123058">
<rect width="106" height="93" fill="white" transform="translate(6 15)"/>
</clipPath>
<clipPath id="clip2_7853_123058">
<rect width="106" height="15.5" fill="white" transform="translate(6 15)"/>
</clipPath>
<clipPath id="clip3_7853_123058">
<rect width="48" height="6.2" fill="white" transform="translate(15 19.6504)"/>
</clipPath>
<clipPath id="clip4_7853_123058">
<rect width="106" height="12.8617" fill="white" transform="translate(6 48.6387)"/>
</clipPath>
<clipPath id="clip5_7853_123058">
<rect width="48" height="5.14468" fill="white" transform="translate(15 52.498)"/>
</clipPath>
<clipPath id="clip6_7853_123058">
<rect width="106" height="12.8617" fill="white" transform="translate(6 95.1387)"/>
</clipPath>
<clipPath id="clip7_7853_123058">
<rect width="48" height="5.14468" fill="white" transform="translate(15 98.998)"/>
</clipPath>
<clipPath id="clip8_7853_123058">
<rect width="106" height="12.8617" fill="white" transform="translate(6 79.6387)"/>
</clipPath>
<clipPath id="clip9_7853_123058">
<rect width="48" height="5.14468" fill="white" transform="translate(15 83.498)"/>
</clipPath>
<clipPath id="clip10_7853_123058">
<rect width="106" height="12.8617" fill="white" transform="translate(6 64.1387)"/>
</clipPath>
<clipPath id="clip11_7853_123058">
<rect width="48" height="5.14468" fill="white" transform="translate(15 67.998)"/>
</clipPath>
</defs>
</svg>
