<svg xmlns="http://www.w3.org/2000/svg" xmlns:xlink="http://www.w3.org/1999/xlink" width="140" height="140" viewBox="0 0 140 140">
    <defs>
        <path id="b" d="M4 0h872a4 4 0 0 1 4 4v360a4 4 0 0 1-4 4H4a4 4 0 0 1-4-4V4a4 4 0 0 1 4-4z"/>
        <filter id="c" width="101.8%" height="104.3%" x="-.9%" y="-1.9%" filterUnits="objectBoundingBox">
            <feOffset dy="1" in="SourceAlpha" result="shadowOffsetOuter1"/>
            <feGaussianBlur in="shadowOffsetOuter1" result="shadowBlurOuter1" stdDeviation="2.5"/>
            <feColorMatrix in="shadowBlurOuter1" result="shadowMatrixOuter1" values="0 0 0 0 0 0 0 0 0 0 0 0 0 0 0 0 0 0 0.03 0"/>
            <feOffset dy="2" in="SourceAlpha" result="shadowOffsetOuter2"/>
            <feGaussianBlur in="shadowOffsetOuter2" result="shadowBlurOuter2" stdDeviation="1.5"/>
            <feColorMatrix in="shadowBlurOuter2" result="shadowMatrixOuter2" values="0 0 0 0 0 0 0 0 0 0 0 0 0 0 0 0 0 0 0.06 0"/>
            <feMerge>
                <feMergeNode in="shadowMatrixOuter1"/>
                <feMergeNode in="shadowMatrixOuter2"/>
            </feMerge>
        </filter>
        <path id="a" d="M4 0h824a4 4 0 0 1 4 4v312a4 4 0 0 1-4 4H4a4 4 0 0 1-4-4V4a4 4 0 0 1 4-4z"/>
        <mask id="d" width="832" height="320" x="0" y="0" fill="#fff">
            <use xlink:href="#a"/>
        </mask>
    </defs>
    <g fill="none" fill-rule="evenodd">
        <path fill="#F3F3F3" d="M-801-495H639V550H-801z"/>
        <g transform="translate(-370 -67)">
            <use fill="#000" filter="url(#c)" xlink:href="#b"/>
            <use fill="#FFF" xlink:href="#b"/>
        </g>
        <g transform="translate(-346 -43)">
            <path fill="#FFF" d="M60 0h769a4 4 0 0 1 4 4v312a4 4 0 0 1-4 4H60a4 4 0 0 1-4-4V4a4 4 0 0 1 4-4z"/>
            <use stroke="#A7A9AC" stroke-dasharray="3" stroke-width="2" mask="url(#d)" xlink:href="#a"/>
            <g transform="translate(346 43)">
                <circle cx="70" cy="70" r="70" fill="#F0F0F0"/>
                <path fill="#D1D3D4" d="M90.346 71.75c0 4.728-1.852 8.918-4.687 11.526l-1.414-2.38a.939.939 0 1 0-1.613.957l1.538 2.591c-1.579 1.028-3.367 1.62-5.266 1.62H74.39a2.585 2.585 0 0 0-2.581 2.579v3.416l-.207-.146a.94.94 0 0 0-1.074 1.54l1.28.895v16.117H52.1v-6.155l2.718 1.98c.168.122.36.18.553.18a.94.94 0 0 0 .553-1.698l-3.824-2.784V91.273c.08-.028.167-.025.24-.077l2.72-1.93a.939.939 0 0 0-1.087-1.532l-1.873 1.33V73.627a2.585 2.585 0 0 0-2.58-2.58h-4.985c-6.309 0-11.441-6.42-11.441-14.313v-5.631c0-3.752 2.37-6.804 5.285-6.804h.77c2.488 0 4.513 2.63 4.513 5.866v7.507c0 1.425 1.081 2.582 2.413 2.582h4.337a1.69 1.69 0 0 0 1.688-1.69V43.126c0-5.362 4.361-9.782 9.72-9.854.044-.002.086-.002.128-.002 2.527 0 4.936 1.007 6.795 2.84a10.33 10.33 0 0 1 2.12 3.046l-2.726 1.475a.936.936 0 0 0-.378 1.272.935.935 0 0 0 1.27.378l2.465-1.333c.2.798.315 1.617.315 2.443v29.298a2.584 2.584 0 0 0 2.581 2.581h2.975c1.332 0 2.413-1.156 2.413-2.581v-7.507c0-3.236 2.025-5.866 4.514-5.866h.77c2.423 0 4.452 2.124 5.071 4.998l-2.26 1.73a.937.937 0 1 0 1.141 1.49l1.333-1.02v5.237zm0 0c0 4.728-1.852 8.918-4.687 11.526l-1.414-2.38a.939.939 0 1 0-1.613.957l1.538 2.591c-1.579 1.028-3.367 1.62-5.266 1.62H74.39a2.585 2.585 0 0 0-2.581 2.579v3.416l-.207-.146a.94.94 0 0 0-1.074 1.54l1.28.895v16.117H52.1v-6.155l2.718 1.98c.168.122.36.18.553.18a.94.94 0 0 0 .553-1.698l-3.824-2.784V91.273c.08-.028.167-.025.24-.077l2.72-1.93a.939.939 0 0 0-1.087-1.532l-1.873 1.33V73.627a2.585 2.585 0 0 0-2.58-2.58h-4.985c-6.309 0-11.441-6.42-11.441-14.313v-5.631c0-3.752 2.37-6.804 5.285-6.804h.77c2.488 0 4.513 2.63 4.513 5.866v7.507c0 1.425 1.081 2.582 2.413 2.582h4.337a1.69 1.69 0 0 0 1.688-1.69V43.126c0-5.362 4.361-9.782 9.72-9.854.044-.002.086-.002.128-.002 2.527 0 4.936 1.007 6.795 2.84a10.33 10.33 0 0 1 2.12 3.046l-2.726 1.475a.936.936 0 0 0-.378 1.272.935.935 0 0 0 1.27.378l2.465-1.333c.2.798.315 1.617.315 2.443v29.298a2.584 2.584 0 0 0 2.581 2.581h2.975c1.332 0 2.413-1.156 2.413-2.581v-7.507c0-3.236 2.025-5.866 4.514-5.866h.77c2.423 0 4.452 2.124 5.071 4.998l-2.26 1.73a.937.937 0 1 0 1.141 1.49l1.333-1.02v5.237zm-28.57-41.764c3.447-.037 6.75 1.297 9.274 3.785 2.57 2.536 4.043 6.042 4.043 9.619v28.595h1.4V65.18c0-3.805 1.991-7.069 4.812-8.448l-.55-2.11a.939.939 0 1 1 1.817-.473l.525 2.022c.392-.072.786-.142 1.194-.142h.77c4.725 0 8.57 4.525 8.57 10.088v5.632c0 9.704-6.607 17.598-14.727 17.598h-3.811v5.005l1.477 1.03a.938.938 0 1 1-1.075 1.539l-.402-.28v14.527a2.583 2.583 0 0 1-2.58 2.581H51.394a2.585 2.585 0 0 1-2.58-2.581V74.33h-4.28c-.367 0-.73-.035-1.09-.066l-.823 1.148a.938.938 0 0 1-1.526-1.094l.29-.404c-6.61-1.73-11.577-8.771-11.577-17.182v-1.157l-2.417-2.18a.938.938 0 0 1 1.257-1.393l1.16 1.045v-1.946c0-5.564 3.845-10.089 8.57-10.089h.77c1.415 0 2.726.478 3.87 1.255l.897-1.747a.937.937 0 0 1 1.261-.408.94.94 0 0 1 .408 1.266l-1.1 2.147c1.508 1.67 2.462 4.018 2.462 6.638v6.804h1.869V43.125c0-7.149 5.813-13.043 12.96-13.14zm40.377-.235c4.389 0 8.361 2.556 10.17 6.529.262-.025.52-.037.776-.037 4.937 0 8.955 4.016 8.955 8.955 0 4.938-4.018 8.955-8.955 8.955a4.64 4.64 0 0 1-.35-.016 5.686 5.686 0 0 1-.392.016h-17.44a6.02 6.02 0 0 1-.669-.04c-.285.026-.551.04-.814.04-4.938 0-8.954-4.017-8.954-8.955 0-4.337 3.199-8.106 7.462-8.82a11.17 11.17 0 0 1 10.21-6.627zM36.786 88.553c-.04.003-.082.007-.122.007H25.99c-.063 0-.134-.005-.227-.018l-.158-.022-.157.019a3.254 3.254 0 0 1-3.617-3.23 3.249 3.249 0 0 1 3.073-3.24l.868-.045.283-.823a4.611 4.611 0 0 1 4.363-3.115 4.6 4.6 0 0 1 4.396 3.21l.364 1.142 1.169-.281c.268-.065.521-.098.768-.098a3.255 3.255 0 0 1 3.253 3.25 3.256 3.256 0 0 1-3.253 3.25l-.241-.013-.088.007zm.07-9.07a7.217 7.217 0 0 0-6.438-3.978 7.213 7.213 0 0 0-6.493 4.093 5.82 5.82 0 0 0-4.676 5.71 5.84 5.84 0 0 0 5.833 5.833 3.9 3.9 0 0 0 .473-.024c.155.017.295.024.435.024h10.674c.084 0 .164-.002.217-.009a3.5 3.5 0 0 0 .234.01 5.839 5.839 0 0 0 5.833-5.834c0-3.3-2.756-5.978-6.092-5.825z"/>
                <path fill="#FFF" d="M61.947 33.27c2.527 0 4.936 1.005 6.795 2.84a10.33 10.33 0 0 1 2.12 3.044l-2.726 1.476a.936.936 0 0 0-.378 1.272.935.935 0 0 0 1.27.378l2.465-1.333c.2.797.315 1.616.315 2.442v29.299a2.584 2.584 0 0 0 2.581 2.581h2.975c1.332 0 2.413-1.157 2.413-2.581V65.18c0-3.235 2.025-5.866 4.514-5.866h.77c2.423 0 4.452 2.125 5.071 4.998l-2.26 1.731a.937.937 0 1 0 1.141 1.49l1.333-1.02v5.237c0 4.728-1.852 8.918-4.687 11.526l-1.414-2.38a.939.939 0 1 0-1.613.957l1.538 2.591c-1.579 1.028-3.367 1.62-5.266 1.62H74.39a2.585 2.585 0 0 0-2.581 2.579v3.416l-.207-.146a.94.94 0 0 0-1.074 1.54l1.28.895v16.117H52.1v-6.155l2.718 1.98c.168.122.36.18.553.18a.94.94 0 0 0 .553-1.698l-3.824-2.784V91.273c.08-.028.167-.025.24-.077l2.72-1.93a.939.939 0 0 0-1.087-1.532l-1.873 1.33V73.627a2.585 2.585 0 0 0-2.58-2.58h-4.985c-6.309 0-11.441-6.42-11.441-14.313v-5.631c0-3.752 2.37-6.804 5.285-6.804h.77c2.488 0 4.513 2.63 4.513 5.866v7.507c0 1.425 1.081 2.582 2.413 2.582h4.337a1.69 1.69 0 0 0 1.688-1.69V43.126c0-5.362 4.361-9.782 9.72-9.854.044-.002.086-.002.128-.002zm4.193 45.75l-2.292 3.782a.937.937 0 1 0 1.604.973l2.295-3.781a.938.938 0 0 0-1.607-.973zm-1.393-15.139a.942.942 0 0 0 .13 1.322l2.584 2.11a.933.933 0 0 0 1.32-.131.937.937 0 0 0-.132-1.32l-2.581-2.112a.94.94 0 0 0-1.321.131zm-12.191-3.55a.937.937 0 0 0-.373 1.274l2.118 3.882a.936.936 0 0 0 1.272.374.939.939 0 0 0 .374-1.274l-2.117-3.881a.94.94 0 0 0-1.274-.375zm-13.633-1.488l-2.294 3.781a.939.939 0 0 0 1.606.973l2.293-3.781a.939.939 0 0 0-1.605-.973zm63.23-26.026a8.085 8.085 0 0 1 7.73 5.643l.435 1.36 1.388-.336a5.92 5.92 0 0 1 1.393-.175 5.895 5.895 0 0 1 5.887 5.889 5.893 5.893 0 0 1-5.887 5.887c-.04 0-.084-.002-.143-.007l-.247-.014-.114.009c-.079.005-.157.012-.238.012h-17.44c-.126 0-.268-.01-.448-.035l-.186-.026-.189.022a5.894 5.894 0 0 1-6.549-5.849 5.881 5.881 0 0 1 5.567-5.869l1.031-.056.336-.978a8.117 8.117 0 0 1 7.674-5.477zM53.609 38.87a.938.938 0 0 0 .037 1.326l2.42 2.291a.937.937 0 0 0 1.291-1.362l-2.422-2.292a.938.938 0 0 0-1.326.037z"/>
            </g>
        </g>
    </g>
</svg>
