<svg width="19" height="21" viewBox="0 0 19 21" fill="none" xmlns="http://www.w3.org/2000/svg">
<g id="icon-arrow-right 1">
<path id="Vector" d="M2.67403 10.5449L7.97706 4.91294C8.08762 4.79552 8.23758 4.72956 8.39394 4.72956C8.5503 4.72956 8.70025 4.79552 8.81082 4.91295C8.92138 5.03036 8.98349 5.18962 8.98349 5.35567C8.98349 5.52173 8.92138 5.68099 8.81082 5.79841L4.51315 10.3618L16.0539 10.3618C16.2101 10.3618 16.36 10.4277 16.4705 10.5451C16.581 10.6625 16.6431 10.8216 16.6431 10.9876C16.6431 11.1535 16.581 11.3127 16.4705 11.4301C16.36 11.5474 16.2101 11.6134 16.0539 11.6134L4.51315 11.6133L8.81082 16.1768C8.92138 16.2942 8.98349 16.4534 8.98349 16.6195C8.98349 16.7855 8.92138 16.9448 8.81082 17.0622C8.70025 17.1796 8.5503 17.2456 8.39394 17.2456C8.23758 17.2456 8.08762 17.1796 7.97706 17.0622L2.67403 11.4303C2.61925 11.3722 2.57579 11.3032 2.54613 11.2272C2.51648 11.1512 2.50122 11.0698 2.50122 10.9876C2.50122 10.9053 2.51648 10.8239 2.54613 10.748C2.57579 10.672 2.61925 10.603 2.67403 10.5449Z" fill="black"/>
</g>
</svg>
