<svg width="17" height="16" viewBox="0 0 17 16" fill="none" xmlns="http://www.w3.org/2000/svg">
<g id="icon-block">
<path id="icon" fill-rule="evenodd" clip-rule="evenodd" d="M8.12005 0.666504C12.2309 0.666504 15.5633 3.94975 15.5633 7.99984C15.5633 12.0499 12.2309 15.3332 8.12005 15.3332C4.00923 15.3332 0.676758 12.0499 0.676758 7.99984C0.676758 3.94975 4.00923 0.666504 8.12005 0.666504ZM12.8785 4.25505L4.31912 12.688C5.3609 13.509 6.68229 13.9998 8.12005 13.9998C11.4834 13.9998 14.21 11.3135 14.21 7.99984C14.21 6.58332 13.7118 5.28145 12.8785 4.25505ZM2.03008 7.99984C2.03008 4.68613 4.75665 1.99984 8.12005 1.99984C9.55781 1.99984 10.8792 2.49071 11.921 3.31163L3.36155 11.7446C2.52832 10.7182 2.03008 9.41636 2.03008 7.99984Z" fill="#72211D"/>
</g>
</svg>
