<svg xmlns="http://www.w3.org/2000/svg" width="24" height="24" viewBox="-6 -6 36 36" style="background-color: #09c;">
    <path fill="#ffffff" fill-rule="evenodd" d="M12 0c6.629 0 12 5.372 12 11.998 0 6.627-5.371 11.998-12 11.998-6.627 0-12-5.37-12-11.998C0 5.372 5.373 0 12 0zm8.09 16.441c.592-.545.594-8.84 0-9.688C19.325 6.1 9.32 3.57 8.558 3.837 8.283 4.09 8.136 6 8.115 8.063c-2.105-.497-3.92-.845-4.23-.738-.592.546-.592 8.844 0 9.687.764.654 10.77 3.185 11.534 2.917.274-.252.42-2.162.442-4.225 2.104.496 3.919.844 4.229.737zm-4.671-6.199c.319.454.466 3.062.442 5.462-3.11-.734-6.851-1.79-7.304-2.18-.32-.454-.465-3.062-.442-5.46 3.109.732 6.848 1.788 7.304 2.178z"/>
</svg>
